# xmcd
#
# Track frame offsets:
#	150
#	13878
#	27238
#	43408
#	58272
#	72618
#	89300
#	103635
#	115232
#	132302
#	145160
#	154822
#	169496
#	182357
#	199531
#
# Disc length: 2844 seconds
#
# Revision: 0
# Processed by: cddbd v1.5.2PL0 Copyright (c) Steve Scherf et al.
# Submitted via: EasyCDDAExtractor 16.0.8.2
#
DISCID=dc0b1a0f
DTITLE=Συλλογικός δίσκος - Ιστορία ρεμπέτικου τραγουδιού 5
DYEAR=2009
DGENRE=Ρεμπέτικη
TTITLE0=Λίντα Μαίρη - Αγάπη πού 'γινες δίκοπο μαχαίρι
TTITLE1=Πάνου Πόλυ - Εγώ είμαι ένα παλιόπαιδο
TTITLE2=Κόκοτας Σταμάτης - Στα Τρίκαλα στα δυό στενά
TTITLE3=Δούκισσα - Μέσ' στης Πεντέλης τα βουνά
TTITLE4=Μενιδιάτης Μιχάλης - Μέσ' στης πόλης το χαμάμ
TTITLE5=Νικολαΐδης Απόστολος - Στο 13 το κελί
TTITLE6=Ζαγοραίος Σπύρος - Η ξαβεργιώτισσα
TTITLE7=Παπαδάτος Νίκος - Μπαρμπα Γιάννη σαν πεθάνεις
TTITLE8=Λίντα Μαίρη - Είμαστε φίλοι και δεν αξίζει
TTITLE9=Δούκισσα - Θα μπλέξω μ' άλλη και θα κλαις
TTITLE10=Πάνου Πόλυ - Ένας αλήτης πέθανε
TTITLE11=Μαργαρίτης Γιώργος - Μην είσαι ψεύτρα
TTITLE12=Διαμάντη Λίτσα - Λίγα ψίχουλα αγάπης σού γυρεύω
TTITLE13=Γενίτσαρης Μιχάλης - Θά 'ρθω νύχτα
TTITLE14=Σκαρπέλης Κούλης - Μέσ' στου Βάβουλα τη γούβα
EXTD=
EXTT0=
EXTT1=
EXTT2=
EXTT3=
EXTT4=
EXTT5=
EXTT6=
EXTT7=
EXTT8=
EXTT9=
EXTT10=
EXTT11=
EXTT12=
EXTT13=
EXTT14=
PLAYORDER=
